/* XPM */
static char *noname[] = {
/* width height ncolors chars_per_pixel */
"57 64 2 1",
/* colors */
"  c #FF1919",
". c #FFFFFF",
/* pixels */
".........................................................",
".........................................................",
".........................................................",
".........................................................",
".........................................................",
".........................................................",
".........................................................",
"...........................  ............................",
".........................     ...........................",
".......................         .........................",
"......................            .......................",
"....................                .....................",
"..................                   ....................",
"................                       ..................",
"...............                          ................",
".............                              ..............",
"...........                                 .............",
".........                                     ...........",
"........                                        .........",
"......                                           ........",
"......                                            .......",
"......                                            .......",
"......                                            .......",
"......                                            .......",
"......                                            .......",
"......                                            .......",
"......                                            .......",
"......                                            .......",
"......                                            .......",
"......       ....   .......   ....   ......       .......",
"......      ..  ..    ...    ..  ..  ... ...      .......",
"......      .    .    ..    ..    .. ..    .      .......",
"......      ..        ..    .     .. ..    .      .......",
"......       .....    ..   ..     .. .......      .......",
"......          ...   ..    .     .. ......       .......",
"......      .    ..   ..    ..    .. ..           .......",
"......      ..   ..   ..    ...  ..  ..           .......",
"......      ......    ..     .....   ..           .......",
"......                                            .......",
"......                                            .......",
"......                                            .......",
"......                                            .......",
"......                                            .......",
"......                                            .......",
"......                                            .......",
"......                                           ........",
"........                                        .........",
".........                                     ...........",
"...........                                 .............",
".............                              ..............",
"...............                          ................",
"................                       ..................",
"..................                   ....................",
"....................                .....................",
"......................            .......................",
".......................         .........................",
".........................     ...........................",
"...........................  ............................",
".........................................................",
".........................................................",
".........................................................",
".........................................................",
".........................................................",
"........................................................."
};
