/* XPM */
static char * cancel_xpm[] = {
"64 64 2 1",
" 	c #0000FFFFFFFF",
".	c #FFFF00000000",
"                                                                ",
"                                                                ",
"                                                                ",
"                                                                ",
"                                                                ",
"                                                                ",
"                                                                ",
"                                                                ",
"                                                                ",
"                                                                ",
"                                                                ",
"                                                                ",
"                                                                ",
"                                                                ",
"                                                                ",
"                                                                ",
"                                                                ",
"                                                                ",
"                                                                ",
"                                                                ",
"                                                                ",
"                                                                ",
"                                                                ",
"                                                                ",
"                                                                ",
"             ......   ..........    .....      .......          ",
"            ..    ..      ..      ...   ...    ..    ..         ",
"           ..      ..     ..      ..     ..    ..     ..        ",
"           ..             ..     ..       ..   ..     ..        ",
"            ..            ..     ..       ..   ..     ..        ",
"             ......       ..     ..       ..   ..    ..         ",
"                  ..      ..     ..       ..   .......          ",
"                   ..     ..     ..       ..   ..               ",
"                   ..     ..     ..       ..   ..               ",
"           ..      ..     ..      ..     ..    ..               ",
"            ..    ..      ..      ...   ...    ..               ",
"             ......       ..        .....      ..               ",
"                                                                ",
"                                                                ",
"                                                                ",
"                                                                ",
"                                                                ",
"                                                                ",
"                                                                ",
"                                                                ",
"                                                                ",
"                                                                ",
"                                                                ",
"                                                                ",
"                                                                ",
"                                                                ",
"                                                                ",
"                                                                ",
"                                                                ",
"                                                                ",
"                                                                ",
"                                                                ",
"                                                                ",
"                                                                ",
"                                                                ",
"                                                                ",
"                                                                ",
"                                                                ",
"                                                                "};
