/* XPM */
static char *cif2dxc[] = {
/* width height num_colors chars_per_pixel */
"    64    64        6            1",
/* colors */
". c #00ffff",
"# c #ff0000",
"a c #0000ff",
"b c #ff00ff",
"c c #00ff00",
"d c #000000",
/* pixels */
"................................................................",
"................................................................",
"................................................................",
"................................................................",
"................................................................",
"................................................................",
"................................................................",
"................................................................",
"................#########.............#########.................",
"................#########.............#########.................",
"................#########.............#########.................",
"................#########.............#########.................",
"............aaaabbbbbbbbbaaaaaaaaaaaaabbbbbbbbbaaaa.............",
"............aaaabbbbbbbbbaaaaaaaaaaaaabbbbbbbbbaaaa.............",
"............aaaabbcccccbbaaaaaaaaaaaaabbcccccbbaaaa.............",
"............aaaabbcccccbbaaaaaaaaaaaaabbcccccbbaaaa.............",
"............aaaabbcccccbbaaaaaaaaaaaaabbcccccbbaaaa.............",
"............aaaabbcccccbbaaaaaaaaaaaaabbcccccbbaaaa.............",
"............aaaabbcccccbbaaaaaaaaaaaaabbcccccbbaaaa.............",
"............aaaabbcccccbbaaaaaaaaaaaaabbcccccbbaaaa.............",
"............aaaabbcccccbbaaaaaaaaaaaaabbcccccbbaaaa.............",
"............aaaabbcccccbbaaaaaaaaaaaaabbcccccbbaaaa.............",
"............aaaabbbbbbbbbaaaaaaaaaaaaabbbbbbbbbaaaa.............",
"............aaaabbbbbbbbbaaaaaaaaaaaaabbbbbbbbbaaaa.............",
"................#########.............#########.................",
"................#########.............#########.................",
"................#########.............#########.................",
"................#########.............#########.................",
"................................................................",
"................................................................",
"................................................................",
"............dddddddddddddddddddddddddddddddddddddddd............",
".............dddddddddddddddddddddddddddddddddddddd.............",
"..............dddddddddddddddddddddddddddddddddddd..............",
"...............dddddddddddddddddddddddddddddddddd...............",
"................dddddddddddddddddddddddddddddddd................",
".................dddddddddddddddddddddddddddddd.................",
"..................dddddddddddddddddddddddddddd..................",
"...................dddddddddddddddddddddddddd...................",
"....................dddddddddddddddddddddddd....................",
".....................dddddddddddddddddddddd.....................",
"......................dddddddddddddddddddd......................",
".......................dddddddddddddddddd.......................",
"........................dddddddddddddddd........................",
".........................dddddddddddddd.........................",
"..........................dddddddddddd..........................",
"...........................dddddddddd...........................",
"............................dddddddd............................",
"............................ddddddd.............................",
"...........................d..dddd.d............................",
"..........................d...dddd..d...........................",
"..........................dd..dddd.dd...........................",
"..........................d.ddddddd.d...........................",
"..........................d...dddd..d...........................",
"..........................d...dddd..d...........................",
"..........................d...dddd..d...........................",
"..........................d...dddd..d...........................",
"..........................d...dddd..d...........................",
"..........................d...dddd..d...........................",
"..........................d...dddd..d...........................",
"..........................d.........d...........................",
"................................................................",
"................................................................",
"................................................................"
};
