/* XPM */
static char * keepmoving_xpm[] = {
"64 64 3 1",
" 	c #0000FFFFFFFF",
".	c #FFFF00000000",
"X	c #00000000FFFF",
"                                                                ",
"                                                                ",
"                                                                ",
"                                                                ",
"                                                                ",
"                                                                ",
"                                                                ",
"                                                                ",
"                                                                ",
"                                                                ",
"                                                 .              ",
"                  .....  .         .....        ...             ",
"                ...    ...       ...   ...      ...             ",
"               ..       ..      ..       ..     ...             ",
"              ..         .     ..         ..    ...             ",
"              ..         .     ..         ..    ...             ",
"             ..               ..           ..   ...             ",
"             ..               ..           ..   ...             ",
"             ..               ..           ..    .              ",
"             ..        ...... ..           ..    .              ",
"             ..          ..   ..           ..    .              ",
"             ..          ..   ..           ..    .              ",
"              ..         ..    ..         ..                    ",
"              ..         ..    ..         ..     .              ",
"               ..        .      ..       ..     ...             ",
"                ...    ..        ...   ...      ...             ",
"                  .....            .....         .              ",
"                                                                ",
"                                                                ",
"                                                                ",
"                         XXXXXXXXXXXXXX                         ",
"                         XXXXXXXXXXXXXX                         ",
"                         XXXXXXXXXXXXXX                         ",
"                         XXXXXXXXXXXXXX                         ",
"                         XXXXXXXXXXXXXX                         ",
"                         XXXXXXXXXXXXXX                         ",
"     XXXXXXXXXXXXXXXXXXXXXXXXXXXXXXXXXXXXXXXXXXXXXXXXXXXXXX     ",
"      XXXXXXXXXXXXXXXXXXXXXXXXXXXXXXXXXXXXXXXXXXXXXXXXXXXX      ",
"       XXXXXXXXXXXXXXXXXXXXXXXXXXXXXXXXXXXXXXXXXXXXXXXXXX       ",
"        XXXXXXXXXXXXXXXXXXXXXXXXXXXXXXXXXXXXXXXXXXXXXXXX        ",
"         XXXXXXXXXXXXXXXXXXXXXXXXXXXXXXXXXXXXXXXXXXXXXX         ",
"          XXXXXXXXXXXXXXXXXXXXXXXXXXXXXXXXXXXXXXXXXXXX          ",
"           XXXXXXXXXXXXXXXXXXXXXXXXXXXXXXXXXXXXXXXXXX           ",
"            XXXXXXXXXXXXXXXXXXXXXXXXXXXXXXXXXXXXXXXX            ",
"             XXXXXXXXXXXXXXXXXXXXXXXXXXXXXXXXXXXXXX             ",
"              XXXXXXXXXXXXXXXXXXXXXXXXXXXXXXXXXXXX              ",
"               XXXXXXXXXXXXXXXXXXXXXXXXXXXXXXXXXX               ",
"                XXXXXXXXXXXXXXXXXXXXXXXXXXXXXXXX                ",
"                 XXXXXXXXXXXXXXXXXXXXXXXXXXXXXX                 ",
"                  XXXXXXXXXXXXXXXXXXXXXXXXXXXX                  ",
"                   XXXXXXXXXXXXXXXXXXXXXXXXXX                   ",
"                    XXXXXXXXXXXXXXXXXXXXXXXX                    ",
"                     XXXXXXXXXXXXXXXXXXXXXX                     ",
"                      XXXXXXXXXXXXXXXXXXXX                      ",
"                       XXXXXXXXXXXXXXXXXX                       ",
"                        XXXXXXXXXXXXXXXX                        ",
"                         XXXXXXXXXXXXXX                         ",
"                          XXXXXXXXXXXX                          ",
"                           XXXXXXXXXX                           ",
"                            XXXXXXXX                            ",
"                                                                ",
"                                                                ",
"                                                                ",
"                                                                "};
