/* XPM */
static char * lm2sch_xpm[] = {
"64 64 5 1",
" 	c #0000FFFFFFFF",
".	c #000000000000",
"X	c #00000000FFFF",
"o	c #FFFF00000000",
"O	c #FFFF0000FFFF",
"                                                                ",
"                                                                ",
"                          .         .                           ",
"                          .         .                           ",
"                          .  ....   .                           ",
"                          .  ....   .                           ",
"                          .  ....   .                           ",
"                          .  ....   .                           ",
"                          .  ....   .                           ",
"                          .  ....   .                           ",
"                          .  ....   .                           ",
"                          . ....... .                           ",
"                          .. ....  ..                           ",
"                          .  ....   .                           ",
"                           . ....  .                            ",
"                            .......                             ",
"                           ........                             ",
"                          ..........                            ",
"                         ............                           ",
"                        ..............                          ",
"                       ................                         ",
"                      ..................                        ",
"                     ....................                       ",
"                    ......................                      ",
"                   ........................                     ",
"                  ..........................                    ",
"                 ............................                   ",
"                ..............................                  ",
"               ................................                 ",
"              ..................................                ",
"             ....................................               ",
"            ......................................              ",
"           ........................................             ",
"                                                                ",
"                                                                ",
"                                                                ",
"                                                                ",
"                            XXXX       XXX                      ",
"                             XX       XXXXX                     ",
"                             XX       X   XX                    ",
"                             XX           XX                    ",
"                oo           XX         XXX     OOOOO           ",
"                ooo          XX        XXX     OOOOOOO          ",
"               ooo           XX          XX    OO    OO         ",
"              ooo            XX           XX   OO    OO         ",
"             ooo             XX    X  X   XX         OO         ",
"            ooo              XXXXXXX  XXXXX          OO  O      ",
"           ooo              XXXXXXXX   XXX           OO  OO     ",
"         oooo                                        OO OO      ",
"          oo             oo              O           OOOO       ",
"           oo          oooo             OOO          OOO        ",
"            oo          ooo              OOO          O         ",
"             ooo       ooo                OOO      O            ",
"              o       ooo                  OOO     OO           ",
"                     ooo                    OOO   OO            ",
"                    ooo                      OOOOOO             ",
"                 ooooo                        OOOO              ",
"                  ooo                          OO               ",
"                   oo                          O                ",
"                    o                                           ",
"                                                                ",
"                                                                ",
"                                                                ",
"                                                                "};
