/* XPM */
static char * LMeter_xpm[] = {
"64 64 4 1",
" 	c #0000FFFFFFFF",
".	c #000000000000",
"X	c #00000000FFFF",
"o	c #FFFF00000000",
"                                                                ",
"                                                                ",
"                            .......                             ",
"                            .     .                             ",
"                            .     .                             ",
"                            .     .                             ",
"                            .     .                             ",
"                            .     .                             ",
"                            .     .                             ",
"                            .     .                             ",
"                            .     .                             ",
"                            .     .                             ",
"                            .     .                             ",
"                            .     .                             ",
"                            .     .                             ",
"                            .     .                             ",
"                            .     .                             ",
"                         ..............                         ",
"                   ......XXXXXXXXXXXXXX......                   ",
"                ...XXXXXXXXXXXXXXXXXXXXXXXXXX...                ",
"             ...XXXXXXXXXXXXXXXXXXXXXXXXXXXXXXXX...             ",
"           ..XXXXXXXXXXXXXXXXXXXXXXXXXXXXXXXXXXXXXX..           ",
"          .XXXXXXXXXXXXXXXXXXXXXXXXXXXXXXXXXXXXXXXXXX.          ",
"        ..XXXXXXXXXXXXXXXXXXXXXXXXXXXXXXXXXXXXXXXXXXXX..        ",
"       .XXXXXXXXXXXXXXXXXXXXXXXXXXXXXXXXXXXXXXXXXXXXXXXX.       ",
"      .XXXXXXXXXXXXXXXXXXXXXXXXXXXXXXXXXXXXXXXXXXXXXXXXXX.      ",
"     .XXXXXXXXXXXXXXXXXXXXXXXXXXXXXXXXXXXXXXXXXXXXXXXXXXXX.     ",
"    .XXXXXXXXXXXXXXooooXXXXXXoooXXXXXXXXXoooXXXXXXXXXXXXXXX.    ",
"    .XXXXXXXXXXXXXXXooXXXXXXXXoooXXXXXXXoooXXXXXXXXXXXXXXXX.    ",
"   .XXXXXXXXXXXXXXXXooXXXXXXXXoooXXXXXXXoooXXXXXXXXXXXXXXXXX.   ",
"   .XXXXXXXXXXXXXXXXooXXXXXXXXooooXXXXXooooXXXXXXXXXXXXXXXXX.   ",
"   .XXXXXXXXXXXXXXXXooXXXXXXXXooXoXXXXXoXooXXXXXXXXXXXXXXXXX.   ",
"   .XXXXXXXXXXXXXXXXooXXXXXXXXooXooXXXooXooXXXXXXXXXXXXXXXXX.   ",
"   .XXXXXXXXXXXXXXXXooXXXXXXXXooXXoXXXoXXooXXXXXXXXXXXXXXXXX.   ",
"   .XXXXXXXXXXXXXXXXooXXXXXXXXooXXooXooXXooXXXXXXXXXXXXXXXXX.   ",
"    .XXXXXXXXXXXXXXXooXXXXooXXooXXXoooXXXooXXXXXXXXXXXXXXXX.    ",
"    .XXXXXXXXXXXXXXoooooooooXXooXXXoooXXXooXXXXXXXXXXXXXXXX.    ",
"     .XXXXXXXXXXXXXoooooooooXooooXXXoXXXooooXXXXXXXXXXXXXX.     ",
"      .XXXXXXXXXXXXXXXXXXXXXXXXXXXXXXXXXXXXXXXXXXXXXXXXXX.      ",
"       .XXXXXXXXXXXXXXXXXXXXXXXXXXXXXXXXXXXXXXXXXXXXXXXX.       ",
"        ..XXXXXXXXXXXXXXXXXXXXXXXXXXXXXXXXXXXXXXXXXXXX..        ",
"          .XXXXXXXXXXXXXXXXXXXXXXXXXXXXXXXXXXXXXXXXXX.          ",
"           ..XXXXXXXXXXXXXXXXXXXXXXXXXXXXXXXXXXXXXX..           ",
"             ...XXXXXXXXXXXXXXXXXXXXXXXXXXXXXXXX...             ",
"                ...XXXXXXXXXXXXXXXXXXXXXXXXXX...                ",
"                   ......XXXXXXXXXXXXXX......                   ",
"                         ..............                         ",
"                            .     .                             ",
"                            .     .                             ",
"                            .     .                             ",
"                            .     .                             ",
"                            .     .                             ",
"                            .     .                             ",
"                            .     .                             ",
"                            .     .                             ",
"                            .     .                             ",
"                            .     .                             ",
"                            .     .                             ",
"                            .     .                             ",
"                            .     .                             ",
"                            .     .                             ",
"                            .......                             ",
"                                                                ",
"                                                                "};
